<svg xmlns="http://www.w3.org/2000/svg" viewBox="0 0 512 512"><circle cx="267" cy="267" r="245" fill="#f24976"/><path d="M241.659 241.656c18.93-18.928 44.096-29.352 70.863-29.352 18.236 0 35.725 4.842 51.009 13.911V53.763H0v316.91c0 5.5 4.5 10 10 10h229.065c-36.451-39.247-35.59-100.831 2.594-139.017z" fill="#eef6ff"/><path d="M22.68 370.673V53.763H0v316.91c0 5.5 4.5 10 10 10h22.68c-5.5 0-10-4.5-10-10z" fill="#c3ddf4"/><path d="M357.815 0H5.716C2.572 0 0 2.572 0 5.716v50.882h363.531V5.716c0-3.144-2.572-5.716-5.716-5.716z" fill="#293d7c"/><path d="M28.396 0H5.716C2.572 0 0 2.572 0 5.716v50.882h22.68V5.716C22.68 2.572 25.252 0 28.396 0z" fill="#1a2b63"/><path d="M158.259 178.615c0 2.75-2.25 5-5 5H41.816c-2.75 0-5-2.25-5-5V98.696c0-2.75 2.25-5 5-5h111.442c2.75 0 5 2.25 5 5v79.919h.001z" fill="#69cdff"/><path d="M59.496 178.615V98.696c0-2.75 2.25-5 5-5h-22.68c-2.75 0-5 2.25-5 5v79.919c0 2.75 2.25 5 5 5h22.68c-2.75 0-5-2.25-5-5z" fill="#52bbef"/><path d="M217.149 281.788H41.816c-2.75 0-5 2.25-5 5v47.809c0 2.75 2.25 5 5 5h174.246c-5.275-18.909-4.916-39.073 1.087-57.809z" fill="#ff9518"/><path d="M59.496 334.597v-47.809c0-2.75 2.25-5 5-5h-22.68c-2.75 0-5 2.25-5 5v47.809c0 2.75 2.25 5 5 5h22.68c-2.75 0-5-2.25-5-5z" fill="#ef8318"/><path d="M217.149 281.788H180.85v57.809h35.212c-5.275-18.909-4.916-39.073 1.087-57.809z" fill="#ffd00d"/><path d="M320.754 101.196H198.165a7.5 7.5 0 0 1 0-15h122.589c4.143 0 7.5 3.358 7.5 7.5s-3.357 7.5-7.5 7.5zm0 29.973H198.165a7.5 7.5 0 0 1 0-15h122.589a7.5 7.5 0 0 1 7.5 7.5 7.5 7.5 0 0 1-7.5 7.5zm0 29.973H198.165a7.5 7.5 0 0 1 0-15h122.589c4.143 0 7.5 3.358 7.5 7.5s-3.357 7.5-7.5 7.5zm0 29.973H198.165a7.5 7.5 0 0 1 0-15h122.589c4.143 0 7.5 3.358 7.5 7.5s-3.357 7.5-7.5 7.5zm-21.295 22.033H36.816c-4.143 0-7.5 3.358-7.5 7.5s3.357 7.5 7.5 7.5H258.39a99.14 99.14 0 0 1 41.069-15zm-59.748 30.514H36.816c-4.143 0-7.5 3.358-7.5 7.5s3.357 7.5 7.5 7.5h191.188a100.01 100.01 0 0 1 11.707-15z" fill="#91e0e8"/><path d="M34.895 34.61c-1.979 0-3.91-.8-5.31-2.191a7.58 7.58 0 0 1-2.19-5.309c0-1.971.8-3.9 2.19-5.3a7.55 7.55 0 0 1 5.31-2.2c1.971 0 3.91.799 5.3 2.2 1.4 1.4 2.2 3.33 2.2 5.3 0 1.979-.8 3.91-2.2 5.309a7.557 7.557 0 0 1-5.3 2.191z" fill="#e26693"/><path d="M59.49 34.61a7.513 7.513 0 0 1-7.5-7.5c0-1.971.8-3.9 2.199-5.3 1.4-1.4 3.33-2.2 5.301-2.2a7.55 7.55 0 0 1 5.31 2.2c1.39 1.4 2.19 3.33 2.19 5.3s-.801 3.91-2.19 5.299a7.55 7.55 0 0 1-5.31 2.201z" fill="#ffaf10"/><path d="M84.095 34.61c-1.98 0-3.91-.8-5.3-2.191a7.55 7.55 0 0 1-2.2-5.309 7.51 7.51 0 0 1 7.5-7.5c1.97 0 3.91.799 5.3 2.2 1.4 1.4 2.2 3.33 2.2 5.3 0 1.979-.8 3.91-2.2 5.309a7.577 7.577 0 0 1-5.3 2.191z" fill="#37c47a"/><path d="M409.768 389.207l-20.555 20.556L429.65 450.2a246.586 246.586 0 0 0 20.556-20.556l-40.438-40.437z" fill="#445ea0"/><path d="M417.928 376.811l-17.035-17.034a99.825 99.825 0 0 1-17.512 23.601c-7.066 7.066-15.002 12.945-23.566 17.541l17.003 17.002c1.944 1.945 5.126 1.945 7.071 0l34.039-34.039c1.944-1.944 1.944-5.126 0-7.071z" fill="#293d7c"/><path d="M388.484 406.254l-14.54-14.54a99.884 99.884 0 0 1-14.13 9.204l17.003 17.002c1.944 1.945 5.126 1.945 7.071 0l11.667-11.667a5.013 5.013 0 0 1-7.071.001z" fill="#1a2b63"/><path d="M384.796 240.241c39.916 39.916 39.916 104.634-.001 144.551-39.914 39.913-104.631 39.914-144.55-.001-39.916-39.916-39.914-104.634 0-144.549 39.919-39.917 104.636-39.918 144.551-.001z" fill="#445ea0"/><path d="M363.197 363.191c-27.986 27.987-73.363 27.987-101.352-.002-27.986-27.984-27.987-73.362 0-101.349 27.986-27.986 73.365-27.985 101.351 0 27.988 27.988 27.988 73.364.001 101.351z" fill="#69cdff"/><path d="M363.197 363.191a72.143 72.143 0 0 0 6.943-8.056c-28.055 20.805-67.855 18.494-93.295-6.946-25.438-25.436-27.748-65.237-6.944-93.292a72.261 72.261 0 0 0-8.056 6.943c-27.987 27.987-27.986 73.364 0 101.349 27.989 27.989 73.366 27.989 101.352.002z" fill="#52bbef"/><path d="M357.815 0H115.912v56.598h247.619V5.716c0-3.144-2.572-5.716-5.716-5.716z" fill="#445ea0"/><g fill="#d9eafc"><circle cx="324.83" cy="264.53" r="12"/><circle cx="350.04" cy="277" r="8.5"/></g></svg>